<?xml version="1.0" encoding="UTF-8" standalone="no"?>
<!DOCTYPE svg PUBLIC "-//W3C//DTD SVG 1.1//EN" "http://www.w3.org/Graphics/SVG/1.1/DTD/svg11.dtd">
<svg width="100%" height="100%" viewBox="0 0 838 118" version="1.1" xmlns="http://www.w3.org/2000/svg" xmlns:xlink="http://www.w3.org/1999/xlink" xml:space="preserve" xmlns:serif="http://www.serif.com/" style="fill-rule:evenodd;clip-rule:evenodd;stroke-linejoin:round;stroke-miterlimit:2;">
    <g transform="matrix(0.827164,0,0,0.827164,54.435177,-16.88817)">
        <path d="M-25.988,78.431C-27.309,87.519 -35.141,94.509 -44.592,94.509C-54.968,94.509 -63.392,86.085 -63.392,75.709C-63.392,65.333 -54.968,56.909 -44.592,56.909C-35.333,56.909 -27.629,63.616 -26.077,72.432L364.28,72.432L364.321,72.39L364.364,72.432L364.368,72.432L364.368,72.436L394.621,102.02L395.661,100.98L395.706,101.025L417.077,79.654L391.658,54.235L421.755,24.138L451.852,54.235L449.632,56.455L449.692,56.515L425.864,80.343L446.949,101.428L476.297,72.08L476.371,72.154L899.516,72.154C901.093,62.039 909.851,54.288 920.406,54.288C932.075,54.288 941.549,63.762 941.549,75.431C941.549,87.1 932.075,96.574 920.406,96.574C909.659,96.574 900.775,88.539 899.437,78.154L478.708,78.154L451.191,105.671L477.316,131.796L449.353,159.759L447.267,161.892L447.243,161.869L447.219,161.893L445.11,159.784L420.826,136.037L403.541,153.322L403.527,153.308L395.662,161.173L365.565,131.076L390.379,106.262L361.919,78.431L-25.988,78.431ZM442.707,105.671L421.622,84.586L400.445,105.763L421.53,126.848L442.707,105.671ZM374.591,131.616L395.662,152.687L416.522,131.827L395.216,110.992L374.591,131.617L374.591,131.616ZM920.407,60.288C912.049,60.288 905.264,67.073 905.264,75.431C905.264,83.789 912.049,90.574 920.407,90.574C928.765,90.574 935.55,83.789 935.55,75.431C935.55,67.073 928.765,60.288 920.407,60.288ZM421.756,32.622L400.145,54.233L421.756,75.844L443.367,54.233L421.756,32.622ZM-44.592,62.907C-51.657,62.907 -57.392,68.643 -57.392,75.707C-57.392,82.772 -51.656,88.507 -44.592,88.507C-37.527,88.507 -31.792,82.771 -31.792,75.707C-31.792,68.642 -37.528,62.907 -44.592,62.907ZM447.22,110.184L425.609,131.795L447.22,153.406L468.831,131.795L447.22,110.184Z" style="fill:currentColor;"/>
    </g>
</svg>
