<svg xmlns="http://www.w3.org/2000/svg" viewBox="0 0 350.96 66.94">
    <title>Access Now</title>
    <path fill="#fff" d="M94.06,17c-5.37,0-8.46,1-11.6,4.44l5.12,5c1.67-1.91,3.09-2.65,6.18-2.65,4.26,0,6,1.55,6,5.07v1.6h-7.6c-7.47,0-11,4.2-11,9.32A10.3,10.3,0,0,0,83.81,47c1.92,1.91,4.57,2.84,8.21,2.84s5.74-.93,7.9-3.09v2.78h7.84V28.38C107.76,20.84,103.07,17,94.06,17ZM99.74,37.7c0,2-.31,3.27-1.18,4.07-1.42,1.35-2.84,1.54-5.06,1.54-3.15,0-4.63-1.48-4.63-3.7S90.48,36,93.38,36h6.36Zm25.32,12.22c-6.42,0-14.38-3.45-14.38-16.48S118.65,17,125.06,17a13.71,13.71,0,0,1,10.62,4.32l-5.43,5.43c-1.66-1.79-3.09-2.53-5.18-2.53a5.57,5.57,0,0,0-4.57,2.1c-1.24,1.54-1.79,3.7-1.79,7.1s.55,5.62,1.79,7.15a5.55,5.55,0,0,0,4.57,2.1c2.1,0,3.52-.74,5.18-2.53l5.43,5.37A13.76,13.76,0,0,1,125.06,49.91Zm25.29,0c-6.42,0-14.38-3.45-14.38-16.48S143.93,17,150.35,17A13.71,13.71,0,0,1,161,21.34l-5.43,5.43c-1.66-1.79-3.09-2.53-5.18-2.53a5.57,5.57,0,0,0-4.57,2.1c-1.24,1.54-1.79,3.7-1.79,7.1s.55,5.62,1.79,7.15a5.55,5.55,0,0,0,4.57,2.1c2.1,0,3.52-.74,5.18-2.53L161,45.53A13.76,13.76,0,0,1,150.35,49.91Zm38.71-17.52C189.06,23.56,184,17,175,17c-8.33,0-14,5.92-14,16.41,0,13,7.28,16.48,14.88,16.48,5.8,0,9-1.79,12.22-5.06l-4.88-4.75a8.88,8.88,0,0,1-7.28,3c-4.5,0-7-3-7-7.15h20.13Zm-20.13-1.92a8.83,8.83,0,0,1,.74-3.45,6,6,0,0,1,10.74,0,8.8,8.8,0,0,1,.74,3.45Zm35.49,19.44c-5.06,0-9.63-.56-13.7-4.63L196,40c2.65,2.65,6.11,3,8.58,3,2.78,0,5.68-.92,5.68-3.33,0-1.6-.87-2.72-3.39-3l-5.06-.5c-5.8-.56-9.38-3.08-9.38-9,0-6.66,5.86-10.24,12.4-10.24,5,0,9.2.86,12.28,3.76l-4.94,5c-1.85-1.66-4.69-2.16-7.47-2.16-3.21,0-4.57,1.48-4.57,3.09,0,1.17.49,2.53,3.33,2.77l5.06.49c6.36.62,9.57,4,9.57,9.45C218.07,46.52,212,49.91,204.43,49.91Zm28.33,0c-5.06,0-9.63-.56-13.71-4.63L224.29,40c2.65,2.65,6.11,3,8.58,3,2.78,0,5.68-.92,5.68-3.33,0-1.6-.87-2.72-3.39-3l-5.06-.5c-5.81-.56-9.38-3.08-9.38-9,0-6.66,5.86-10.24,12.4-10.24,5,0,9.2.86,12.28,3.76l-4.94,5c-1.85-1.66-4.69-2.16-7.47-2.16-3.21,0-4.57,1.48-4.57,3.09,0,1.17.49,2.53,3.33,2.77l5.06.49c6.36.62,9.57,4,9.57,9.45C246.39,46.52,240.34,49.91,232.75,49.91Zm38.63-.45V29.83c0-5.64-3-8.49-7.84-8.49s-7.91,2.92-7.91,8.49V49.46H251V17.58h4.67v3.5a11.5,11.5,0,0,1,8.94-3.89,11.17,11.17,0,0,1,8.17,3C275,22.37,276,25.35,276,29V49.46Zm30.39-28.65a13.32,13.32,0,0,0-18.28,0c-3.24,3.31-3.89,7.78-3.89,12.7s.65,9.4,3.89,12.7a13.32,13.32,0,0,0,18.28,0c3.24-3.31,3.89-7.78,3.89-12.7S305,24.12,301.77,20.82Zm-3.3,22.55a8.17,8.17,0,0,1-5.83,2.33,8,8,0,0,1-5.77-2.33c-2.33-2.33-2.59-6.29-2.59-9.85s.26-7.52,2.59-9.85a8,8,0,0,1,5.77-2.33,8.17,8.17,0,0,1,5.83,2.33C300.8,26,301,30,301,33.52S300.8,41,298.47,43.37Zm42.44,6.09h-4.34l-8.36-24.76-8.3,24.76h-4.34L305.46,17.58h5.05l7.32,25.6,8.36-25.6h4l8.43,25.6,7.26-25.6H351Z"/>
    <path fill="#88bd56" d="M5.66,43.16q-2.39-.38-4.73-.89A34.4,34.4,0,0,0,23.52,66.93c0-.12,0-.24,0-.36a12.3,12.3,0,0,1,2.4-7.3,76.81,76.81,0,0,1-5.18-6.65A10.76,10.76,0,0,1,5.66,43.16Zm43.8-3.44A120.76,120.76,0,0,0,64.9,50a34.17,34.17,0,0,0,3.79-15.67A34.55,34.55,0,0,0,68,27.7,82.88,82.88,0,0,1,61,32.45,75.8,75.8,0,0,1,57,43.57l-1.21-.81a74.35,74.35,0,0,0,3.35-9.27,82.08,82.08,0,0,1-32,10.24A10.77,10.77,0,0,1,22,51.95a75.27,75.27,0,0,0,4.83,6.21,12.31,12.31,0,0,1,14.61-2.62A119.46,119.46,0,0,0,45.25,41.3l1.57-.55A120.94,120.94,0,0,1,42.7,56.27a12.43,12.43,0,0,1,3.15,3A75,75,0,0,0,54,46.69l1.21.79a76.46,76.46,0,0,1-8.5,13.08,12.29,12.29,0,0,1,1.53,5.21,34.48,34.48,0,0,0,16-14.49,122.38,122.38,0,0,1-16.3-11Zm13.9-21.93a75.86,75.86,0,0,1-1.9,12.68q3.23-2,6.25-4.31a34.1,34.1,0,0,0-3.45-8.69A3.56,3.56,0,0,1,63.35,17.79ZM7,22.51c-2,1.06-4,2.2-5.92,3.42A34.34,34.34,0,0,0,.6,40.73q2.51.57,5.09,1a10.77,10.77,0,0,1,5.36-8.32A75.78,75.78,0,0,1,7.23,13.27a34.24,34.24,0,0,0-5.6,10.59Q4.12,22.37,6.7,21C6.79,21.52,6.87,22,7,22.51Zm52.1-8.25a3.55,3.55,0,0,1,0-.5q-3.33-.5-6.74-.73a6,6,0,0,1-3.29,4.4A122.23,122.23,0,0,1,47.68,35.8l-1.55.6-.49.19-1.56.56A122.92,122.92,0,0,1,30.52,23.44a7.66,7.66,0,0,1-11.69-6q-4,1.38-7.85,3.13c-.08-.49-.16-1-.23-1.47a86.26,86.26,0,0,1,8.13-3.19,7.65,7.65,0,0,1,2.53-4.71q-2.12-3.27-4-6.67A34.48,34.48,0,0,0,8.6,11.62a74.35,74.35,0,0,0,3.75,21.13,10.76,10.76,0,0,1,14.82,9.53A80.69,80.69,0,0,0,59.71,31.53a74.37,74.37,0,0,0,2.21-13.74A3.59,3.59,0,0,1,59.05,14.27Zm-6.62-2.66q3.62.25,7.16.78a3.56,3.56,0,0,1,.55-.7A34.42,34.42,0,0,0,48.22,2.93q.21,1.74.37,3.5A6,6,0,0,1,52.44,11.61Zm-6,6.44a6,6,0,0,1-5.92-5q-3.56.24-7,.78a7.65,7.65,0,0,1-1.83,8.75,121.39,121.39,0,0,0,14,14l.49-.19a120.76,120.76,0,0,0,1.51-18.48A5.79,5.79,0,0,1,46.45,18ZM32.73,12.48q3.81-.61,7.73-.87a6,6,0,0,1,6-5.57,6.14,6.14,0,0,1,.65,0q-.18-1.9-.42-3.77A34.32,34.32,0,0,0,18.63,3.81q1.87,3.32,3.93,6.52a7.65,7.65,0,0,1,10.16,2.15Z"/></svg>
