<svg width="100%" height="100%" viewBox="0 0 744 364" version="1.1" xmlns="http://www.w3.org/2000/svg" xmlns:xlink="http://www.w3.org/1999/xlink" xml:space="preserve" style="fill-rule:evenodd;clip-rule:evenodd;stroke-linejoin:round;stroke-miterlimit:2;">
    <g>
        <path d="M298.997,135.791c0.971,-2.487 1.366,-4.546 6.008,-7.772c4.083,-2.837 5.42,-3.766 62.067,-3.199c53.332,0.534 64.552,-4.184 66.208,19.926c0.524,7.627 0.274,78.09 0.173,78.423c-0.606,2.013 -20.458,1.104 -20.889,0.59c-0.775,-0.925 -0.211,-41.383 -0.444,-48.271c-0.079,-2.328 -10.536,-1.494 -11.075,-0.827c-1.023,1.266 0.483,48.106 -0.853,49.256c-0.641,0.552 -68.715,0.609 -69.437,-0.03c-1.304,-1.154 -0.282,-42.083 -0.624,-48.479c-0.117,-2.192 -10.092,-1.336 -10.862,-0.912c-0.997,0.548 -0.378,33.848 -0.658,47.834c-0.041,2.025 -1.47,1.924 -2.435,1.928c-17.587,0.073 -18.737,0.287 -18.769,-1.921c-0.812,-56.25 0.151,-75.077 0.484,-81.596l1.104,-4.949Z" style="fill:#f89716;"/>
        <path d="M279.299,201.316c0,21.581 0.474,22.906 -1.906,22.94c-18.385,0.264 -18.977,0.366 -19.317,-1.145c-0.482,-2.139 0.577,-47.944 -0.766,-48.631c-0.641,-0.328 -10.316,-1.373 -10.818,0.935c-0.482,2.215 0.706,47.313 -0.678,48.476c-0.688,0.578 -68.624,0.659 -69.393,-0.036c-1.27,-1.147 0.269,-47.84 -0.91,-49.186c-0.567,-0.648 -10.32,-1.491 -10.875,0.665c-0.669,2.6 0.822,47.959 -1.167,48.728c-0.258,0.1 -19.149,0.727 -19.969,-0.352c-0.188,-0.247 -1.525,-78.363 0.917,-86.926c4.713,-16.525 26.478,-11.053 63.451,-11.927c60.618,-1.434 63.245,1.6 66.752,5.652c5.355,6.184 4.679,8.768 4.679,70.808Z" style="fill:#1bbab8;"/>
        <path d="M566.416,177.071c-0.087,-0.518 0.072,-1.058 -0.014,-1.576c-0.403,-2.416 -10.556,-1.425 -11.033,-0.865c-1.067,1.253 0.364,48.07 -0.876,49.214c-0.874,0.806 -68.719,0.48 -69.449,0.155c-1.758,-0.783 -0.001,-47.872 -0.994,-49.214c-0.934,-1.262 -10.15,-0.572 -10.154,-0.571c-2.563,1.282 0.284,48.085 -1.753,49.728c-0.692,0.558 -18.806,0.349 -19.446,0.134c-1.055,-0.356 -1.063,-6.062 -1.064,-6.596c-0.098,-71.029 -0.059,-71.377 0.634,-77.542c0.175,-1.559 1.404,-12.485 13.483,-14.24c7.672,-1.115 8.11,-1.178 96.908,-0.838c26.637,0.102 25.118,10.798 25.076,38.471c-0.089,59.35 0.738,60.073 -0.775,60.71c-0.914,0.385 -19.199,0.228 -19.537,0.128c-1.2,-0.357 -0.946,-0.957 -1.007,-47.098Z" style="fill:#1bbab8;"/>
        <path d="M177.701,41.914c19.982,-25.593 47,-18.853 58.23,-12.367c34.653,20.012 25.465,71.096 -8.785,80.891c-41.142,11.766 -72.429,-31.369 -51.075,-66.09l1.629,-2.433Zm231.685,6.528c20.551,47.723 -33.581,82.412 -68.851,53.318c-30.67,-25.3 -12.438,-79.717 30.583,-78.137c25.89,0.95 36.588,21.58 38.267,24.819Zm148.006,0.753c18.947,41.787 -28.255,80.435 -65.275,55.482c-38.368,-25.862 -15,-88.179 32.575,-80.446c22.535,3.663 31.283,21.994 32.7,24.964Z" style="fill:#f89716;"/>
        <path d="M707.459,295.17c-2.421,1.923 -3.936,2.619 -1.4,4.398c4.923,3.453 11.527,8.605 8.698,24.645c-0.936,5.306 -4.631,9.004 -4.698,9.094c-8.971,8.141 -13.992,7.557 -41.452,7.53c-2.85,-0.003 -2.27,-1.558 -2.27,-22.297l0,-53.342c-0.001,-3.331 -0.32,-4.446 3.07,-4.457c20.541,-0.065 44.761,-2.333 44.106,21.416c-0.2,7.258 -5.235,12.208 -6.054,13.013Zm-18.742,9.904c-5.792,-0.068 -5.825,-0.207 -6.3,0.048c-0.848,0.457 -0.858,1.889 -0.86,2.068c-0.13,18.586 -0.514,18.623 0.192,20.064c0.691,1.413 9.376,0.59 10.285,0.372c8.517,-2.04 14.785,-19.539 -3.317,-22.553Zm0.013,-31.643c-4.831,-0.018 -7.131,-1.797 -7.18,3.047c-0.155,15.137 -0.047,15.908 1.558,15.952c2.704,0.075 12.087,0.986 14.749,-6.999c3.302,-9.906 -7.937,-11.8 -9.127,-12Zm-34.74,67.368c-1.86,-0.002 -8.769,0.055 -9.811,-0.172c-2.645,-0.577 -2.65,-16.582 -6.32,-16.765c-0.225,-0.011 -17.496,-0.027 -17.838,-0.001c-3.831,0.292 -4.364,15.385 -6.395,16.526c-1.456,0.818 -13.04,0.323 -13.12,0.3c-1.501,-0.431 -1.025,-1.36 12.747,-56.212c5.719,-22.778 5.585,-22.861 6.041,-23.283c0.85,-0.786 18.193,-0.395 18.606,-0.256c0.882,0.296 2.307,6.082 2.442,6.63c1.416,5.75 15.739,63.922 17.389,71.951c0.374,1.823 -0.795,0.98 -3.74,1.282Zm-19.724,-39.189c-1.927,-8.519 -1.953,-8.45 -3.921,-16.995c-0.988,-4.294 -1.465,-9.321 -2.351,-4.999c-2.772,13.529 -3.157,13.376 -6.048,26.825c-0.554,2.575 -1.334,3.77 1.343,3.797c9.795,0.095 13.01,0.675 12.368,-2.294c-0.11,-0.507 -0.103,-0.469 -1.391,-6.334Zm-42.507,39.18c-35.282,0.007 -35.586,0.119 -36.035,-0.667c-0.466,-0.816 -0.169,-78.071 -0.153,-78.149c0.448,-2.198 14.403,-1.311 14.879,-0.644c0.741,1.039 0.121,62.807 0.341,64.441c0.34,2.528 10.529,1.012 22.595,1.442c2.605,0.093 1.97,4.533 1.951,11.511c-0.007,2.513 -1.117,1.698 -3.579,2.065Z" style="fill:#1cbab7;"/>
        <path d="M527.012,307.107c0.057,-0.44 -0.284,-44.194 -0.015,-45.207c0.585,-2.202 13.005,-0.969 13.117,-0.922c0.9,0.381 0.79,0.792 0.79,61.568c-0,16.522 0.764,18.122 -2.489,18.25c-10.904,0.427 -11.322,0.084 -12.068,-0.53c-0.897,-0.738 -16.667,-36.258 -18.076,-39.43c-4.626,-10.419 -4.428,-10.635 -5.32,-11.042l-0.679,0.499c0.276,2.897 0.282,2.877 0.298,3.128c0.141,2.252 0.114,44.935 0.011,46.05c-0.167,1.806 -5.671,1.358 -11.833,1.326c-1.56,-0.008 -1.981,-0.741 -1.984,-2.073c-0.013,-6.151 -0.163,-76.129 0.085,-76.888c0.369,-1.129 0.712,-1.481 14.806,-1.123c1.823,0.046 2.154,0.493 4.634,6.173c2.836,6.495 2.798,6.432 3.048,6.989c9.814,21.911 9.875,21.797 10.718,23.699c3.659,8.248 2.855,9.249 4.957,9.534Zm-294.412,7.36c0.328,-1.976 -0.158,-2.344 1.03,-2.71c0.503,-0.155 12.342,-0.118 13.119,-0.008c2.1,0.299 1.748,14.525 -4.202,22.054c-8.897,11.258 -43.246,14.932 -45.069,-15.306c-0.362,-6.011 -0.133,-33.748 -0.124,-33.937c1.625,-33.111 33.415,-24.367 37.96,-22.558c11.686,4.649 12.928,21.157 12.439,23.444c-0.221,1.037 -0.545,1.493 -13.197,1.227c-4.217,-0.089 0.673,-12.147 -9.723,-13.363c-13.675,-1.601 -12.204,10.036 -12.206,15.292c-0.01,32.194 -1.262,38.428 7.388,39.422c14.24,1.637 12.336,-9.878 12.586,-13.556Zm239.547,26.325c-38.538,-0.011 -39.318,0.237 -39.606,-1.274c-0.1,-0.522 -0.039,-76.374 -0.033,-76.781c0.038,-2.729 3.015,-1.972 5.694,-1.972c31.266,-0.001 31.247,-0.026 33.964,-0.006c1.58,0.012 2.155,0.509 2.159,1.99c0.03,9.75 -0.064,10.234 -0.236,10.675c-0.875,2.247 -24.365,-0.402 -25.988,1.565c-0.643,0.779 -0.373,16.31 -0.191,16.84c0.666,1.938 18.029,0.363 19.275,1.078c1.612,0.925 0.705,12.425 0.636,12.531c-1.013,1.58 -17.353,0.253 -19.136,0.886c-1.835,0.651 -0.8,19.979 -0.648,20.176c1.07,1.379 22.196,0.342 25.749,0.664c0.995,0.09 2.373,0.215 1.68,12.371c-0.065,1.139 -0.552,0.718 -3.319,1.257Zm-94.891,-78.999c0.047,-0.042 0.215,-1 1.95,-1.082c14.771,-0.694 37.22,-0.033 40.455,0.063c1.922,0.057 1.792,2.652 1.656,11.667c-0.033,2.146 -0.037,2.468 -12.695,23.632c-1.405,2.349 -7.313,13.012 -7.942,14.147c-7.824,14.119 -10.717,16.985 -6.918,16.954c7.477,-0.061 26.504,-0.019 26.689,0.003c2.065,0.255 1.571,4.196 1.573,11.531c0.001,1.913 -0.921,2.095 -2.416,2.095c-40.162,-0.024 -40.138,0.071 -43.628,-0.009c-2.676,-0.061 -2.097,-4.23 -1.992,-10.977c0.057,-3.657 0.913,-3.447 21.222,-39.697c8.076,-14.486 8.319,-14.446 8.2,-15.244c-0.216,-1.458 -24.7,0.078 -25.778,-0.888c-1.399,-1.254 -0.513,-1.591 -0.553,-7.209l0.176,-4.986Zm-61.899,78.997c-3.939,0.002 -9.532,0.189 -10.586,-0.369c-1.285,-0.68 -0.196,-62.702 -0.605,-64.775c-0.557,-2.818 -14.763,-0.577 -17.099,-1.59c-0.816,-0.354 -1.913,-12.745 0.747,-13.261c0.754,-0.146 46.097,-0.116 47.798,-0.01c1.908,0.119 1.933,2.168 1.733,11.669c-0.067,3.197 -10.645,1.473 -16.299,1.866c-2.743,0.19 -1.36,1.903 -1.555,63.583c-0.012,3.913 -2.026,2.851 -4.134,2.888Zm31.977,-22.286c-0,-51.367 -0.281,-51.346 -0.008,-55.802c0.157,-2.563 3.636,-2.059 11.681,-1.996c2.824,0.022 3.537,0.035 3.548,2.836c0.023,6.084 0.28,73.068 -0.053,76.045c-0.118,1.054 -0.491,1.485 -13.196,1.211c-2.489,-0.054 -1.972,-1.406 -1.972,-22.293Zm-75.62,22.285c-4.368,0.003 -10.404,0.526 -10.535,-1.267c-0.056,-0.766 -0.105,-77.028 0.023,-77.593c0.431,-1.897 14.399,-1.971 15.094,0.058c0.155,0.453 0.053,69.837 0.045,75.91c-0.005,3.304 -1.324,2.582 -4.627,2.891Z" style="fill:#f69817;"/>
        <path d="M83.405,340.795c-5.359,-0.124 -5.344,0.002 -5.787,-0.133c-1.161,-0.355 -1.105,-5.507 -1.1,-5.994c0.335,-30.882 -0.513,-72.457 0.506,-73.458c0.814,-0.799 13.614,-0.412 13.761,-0.369c2.211,0.647 0.466,26.224 1.116,30.249c0.253,1.569 0.797,2.157 19.797,1.634c2.713,-0.075 1.399,-1.744 1.768,-29.975c0.014,-1.102 0.038,-2.93 13.638,-1.959c2.176,0.155 1.588,3.932 1.585,5.184c-0.067,25.431 0.066,72.814 -0.08,73.533c-0.493,2.441 -14.289,1.092 -14.584,0.94c-1.282,-0.661 -0.185,-31.695 -0.661,-33.276c-0.59,-1.96 -20.631,-0.899 -20.959,-0.636c-1.283,1.031 -0.244,30.66 -0.635,33.07c-0.293,1.808 -7.743,1.188 -8.368,1.191Zm94.766,-34.922c-3.84,1.105 -18.856,-0.955 -19.462,1.362c-0.082,0.313 -0.316,18.368 0.126,19.207c1.088,2.066 26.589,-0.749 27.393,1.683c0.106,0.32 0.427,11.471 -0.209,12.175c-0.638,0.705 -41.811,1.022 -42.464,-0.177c-0.453,-0.832 -0.166,-78.118 -0.157,-78.15c0.373,-1.405 1.031,-1.203 36.183,-1.198c0.967,0 5.542,-0.87 5.553,1.969c0.026,6.801 0.792,11.544 -2.314,11.564c-22.48,0.147 -24.063,-1.309 -24.175,1.373c-0.691,16.516 0.162,16.995 1.53,17.043c8.609,0.303 18.598,-1.035 18.694,1.522c0.371,9.878 -0.211,10.832 -0.697,11.627Zm-137.6,34.919c-0.524,-0.001 -6.135,-0.007 -6.539,-0.379c-1.389,-1.281 0.249,-63.841 -0.89,-65.444c-1.328,-1.87 -16.368,0.785 -17.443,-1.775c-0.043,-0.102 -0.32,-11.049 0.191,-11.822c0.669,-1.013 49.665,-0.903 50.34,-0.088c0.145,0.175 1.882,12.928 -1.384,13.019c-14.07,0.393 -16.043,-1.282 -16.092,2.179c-0.171,11.906 0.337,62.803 -0.301,63.698c-0.672,0.942 -7.781,0.613 -7.881,0.613Z" style="fill:#1bbab7;"/>
    </g>
</svg>
