<?xml version="1.0" encoding="UTF-8" standalone="no"?><!DOCTYPE svg PUBLIC "-//W3C//DTD SVG 1.1//EN" "http://www.w3.org/Graphics/SVG/1.1/DTD/svg11.dtd"><svg width="100%" height="100%" viewBox="0 0 546 173" version="1.1" xmlns="http://www.w3.org/2000/svg" xmlns:xlink="http://www.w3.org/1999/xlink" xml:space="preserve" xmlns:serif="http://www.serif.com/" style="fill-rule:evenodd;clip-rule:evenodd;stroke-linejoin:round;stroke-miterlimit:2;"><path d="M114.043,25.938c-8.363,-4.924 -17.05,-5.82 -25.901,-3.745c-10.387,2.434 -17.242,9.484 -18.963,19.696c-1.916,11.37 -1.989,23.05 -2.907,35.147l11.038,0c0.108,2.312 0.196,4.181 0.304,6.484c-3.308,0.19 -6.214,0.358 -9.405,0.542c-0.112,1.639 -0.296,3.091 -0.297,4.544c-0.011,17.817 -0.025,35.634 0.027,53.451c0.028,9.497 2.185,11.951 11.553,13.51c0.656,0.109 1.409,0.013 1.957,0.309c0.863,0.467 1.589,1.186 2.373,1.798c-0.875,0.695 -1.744,1.989 -2.624,1.997c-15.152,0.135 -30.305,0.157 -45.456,0.02c-1.038,-0.009 -2.063,-1.477 -3.095,-2.267c0.27,-0.362 0.541,-0.725 0.811,-1.087c3.771,-0.404 7.579,-0.602 11.304,-1.261c5.746,-1.016 8.172,-3.657 8.21,-9.519c0.134,-20.301 0.052,-40.603 0.052,-61.739c-4.42,0 -8.669,0.182 -12.889,-0.092c-1.632,-0.106 -3.196,-1.246 -4.792,-1.914c1.413,-0.948 2.718,-2.174 4.265,-2.781c2.449,-0.962 5.117,-1.359 7.592,-2.266c4.007,-1.469 5.695,-4.232 5.862,-8.758c0.632,-17.144 4.776,-33.156 18.795,-44.516c13.882,-11.248 29.793,-14.075 46.976,-9.055c2.041,0.596 4.027,1.655 5.791,2.863c2.865,1.961 5.439,4.379 3.018,8.233c-2.222,3.538 -5.38,4.89 -9.394,2.869c-1.334,-0.672 -2.579,-1.519 -4.206,-2.461l0.001,-0.002Z" style="fill:#0b9b7c;fill-rule:nonzero;"/><path d="M423.293,104.912l-0,-49.231c4.952,0 9.432,-0.257 13.849,0.155c1.347,0.126 2.916,1.871 3.707,3.259c4.013,7.037 7.804,14.202 12.531,21.16l0,-24.228l14.425,0l0,49.185c-4.169,0 -8.303,0.302 -12.352,-0.154c-1.545,-0.174 -3.383,-1.794 -4.25,-3.252c-4.23,-7.116 -8.176,-14.401 -13.087,-21.528l0,24.634l-14.823,0Z" style="fill:#fff;fill-rule:nonzero;"/><path d="M295.235,105.208c-3.607,0.502 -5.587,-0.587 -7.151,-3.587c-3.876,-7.433 -8.158,-14.654 -13.099,-21.796l0,25.201l-14.113,0l0,-49.335c4.448,0 8.896,-0.204 13.302,0.13c1.246,0.095 2.789,1.526 3.487,2.748c4.182,7.328 8.157,14.774 13.022,22.041l0,-24.676l14.146,0l0,49.275l-9.594,0l-0,-0.001Z" style="fill:#fff;fill-rule:nonzero;"/><path d="M175.905,88.03l0,16.782l-14.981,0l0,-48.862c10.839,0 21.455,-0.347 32.032,0.134c6.022,0.274 10.696,3.58 12.391,9.842c1.866,6.895 -0.386,12.388 -6.157,16.527c8.405,5.469 5.827,14.591 7.884,22.484l-15.112,0c-0.324,-2.131 -0.795,-4.346 -0.976,-6.584c-0.735,-9.096 -2.136,-10.4 -11.388,-10.323c-0.984,0.008 -1.967,0.001 -3.694,0.001l0.001,-0.001Zm0.309,-21.211c5.546,-0.206 13.476,-1.366 14.119,3.153c0.273,1.921 0.173,3.335 -0.261,4.378c-0.419,1.861 -2.102,2.654 -5.15,2.789c-2.773,0.289 -5.581,0.022 -8.708,0.022l0,-10.342Z" style="fill:#fff;"/><path d="M209.838,68.048c6.502,-11.35 17.635,-15.939 29.927,-12.616c10.837,2.929 17.589,12.4 17.697,24.825c0.111,12.761 -6.463,22.398 -17.673,25.215c-9.999,2.512 -19.471,1.098 -26.399,-7.062c-7.596,-8.946 -7.957,-19.328 -3.551,-30.361m21.016,25.94c4.127,0.194 6.603,-1.688 8.62,-3.775c3.829,-3.962 3.459,-14.806 0.208,-19.396c-3.357,-4.74 -9.945,-5.208 -13.869,-0.986c-6.015,6.472 -3.623,20.011 5.041,24.157Z" style="fill:#fff;fill-rule:nonzero;"/><path d="M487.948,70.168c0.062,1.734 0.136,3.014 0.231,4.652l22.837,0l0,11.508l-22.738,0l0,6.096l25.928,0l0,12.478l-41.112,0l0,-48.886l40.432,0l0,12.263c-7.168,0 -14.274,-0.076 -21.375,0.065c-1.405,0.028 -2.793,0.891 -4.201,1.824l-0.002,0Z" style="fill:#fff;fill-rule:nonzero;"/><path d="M338.289,157.759c0.02,-14.533 0.04,-29.066 0.219,-44.213c0.295,-0.91 0.422,-1.209 0.539,-1.513c7.978,-0.027 15.957,-0.151 23.933,-0.056c10.988,0.131 18.264,6.131 20.11,16.915c0.662,3.868 0.852,7.987 0.308,11.858c-1.609,11.462 -8.906,17.885 -20.63,18.337c-7.635,0.294 -15.289,0.105 -23.444,-0.19c-0.568,-0.67 -0.743,-0.942 -1.036,-1.139m30.566,-18.885c0.728,-11.848 -4.803,-16.817 -15.627,-14.046l0,21.766c9.804,1.351 12.629,0.061 15.627,-7.72Z" style="fill:#ec1f27;fill-rule:nonzero;"/><path d="M472.878,153.054c0.208,1.811 0.416,3.622 0.668,5.817l-13.512,0c-1.682,-5.214 -2.399,-10.731 -5.225,-14.775c-1.365,-1.953 -6.693,-1.137 -10.721,-1.636l0,16.443l-14.52,0l0,-46.961c4.57,0 9.308,-0.002 14.046,0c4.497,0.002 8.994,-0.03 13.49,0.021c6.426,0.072 11.884,2.031 14.605,8.408c2.564,6.009 0.83,11.59 -4.841,16.816c1.39,1.98 2.77,3.947 4.263,6.647c0.658,3.563 1.202,6.392 1.746,9.221m-28.934,-25.534c0.073,1.606 0.146,3.213 0.244,5.364c3.554,-0.158 6.919,0.161 9.992,-0.64c1.536,-0.4 3.183,-2.036 3.523,-4.395c0.176,-1.218 -0.836,-3.406 -2.316,-3.952c-2.228,-0.82 -4.712,-0.936 -8.294,-0.815c-1.239,0.042 -3.094,0.583 -3.094,0.583c0,0 -0.195,2.008 -0.055,3.855Z" style="fill:#ec2128;fill-rule:nonzero;"/><path d="M146.607,111.991c13.914,2.231 20.277,11.084 19.321,26.273c-0.798,12.675 -8.591,20.39 -21.501,20.848c-7.755,0.275 -15.528,0.051 -23.556,0.051l0,-47.196c8.443,0 16.862,0 25.737,0.024m4.281,20.191c-2.719,-7.139 -6.574,-9.035 -15.547,-7.558l0,22.142c12.605,1.132 16.071,-1.979 15.547,-14.585l0,0.001Z" style="fill:#ec1f27;fill-rule:nonzero;"/><path d="M313.117,121.902c0,0 8.303,11.486 8.602,11.389l0,-21.048l13.299,0l0,46.989c-4.13,0 -8.109,0.284 -12.008,-0.152c-1.394,-0.156 -11.622,-16.98 -16.509,-23.646l0,23.469l-13.477,0l0,-46.334l14.281,-0.114l5.81,9.445l0.002,0.002Z" style="fill:#ed1e25;fill-rule:nonzero;"/><path d="M274.027,129.98l12.217,0l0,11.276l-21.947,0l0,5.59l24.959,0l0,12.1l-39.618,0l0,-46.662l39.005,0l0,11.699l-24.23,0c-0.143,2.008 -0.255,3.588 -0.427,5.998l10.042,0l-0.001,-0.001Z" style="fill:#ec232a;fill-rule:nonzero;"/><path d="M168.05,112.031l38.634,0l0,11.855l-24.24,0l0,5.896l21.741,0l0,11.551l-21.746,0l0,5.748c7.924,0 15.713,0 24.069,0.237c0.679,0.57 0.888,0.82 1.197,0.988l0,10.895c-13.331,0 -26.095,0 -39.365,-0.327c-0.67,-0.615 -0.833,-0.904 -0.997,-1.193c0.028,-14.485 0.055,-28.971 0.221,-44.082c0.254,-0.94 0.37,-1.254 0.486,-1.568Z" style="fill:#ec2027;fill-rule:nonzero;"/><path d="M422.635,141.283l-21.734,-0l0,5.723l24.75,0l0,11.929l-39.443,0l0,-46.683l38.624,0l0,11.769l-23.954,0l0,5.806l21.757,0l0,11.456Z" style="fill:#ec1f27;fill-rule:nonzero;"/><path d="M486.859,144.082c1.723,5.121 5.675,7.365 10.233,5.448c1.317,-0.554 2.916,-2.142 3.021,-3.372c0.096,-1.127 -1.405,-3.016 -2.63,-3.513c-3.682,-1.494 -7.584,-2.437 -11.379,-3.658c-8.893,-2.861 -12.148,-6.476 -11.919,-13.155c0.255,-7.446 4.844,-13.017 13.477,-14.232c5.25,-0.739 10.961,-0.138 16.15,1.139c6.047,1.489 8.687,6.119 9.08,13.386c-3.79,0 -7.566,0.108 -11.327,-0.08c-0.878,-0.044 -1.691,-1.118 -2.558,-1.679c-1.596,-1.032 -3.207,-2.843 -4.817,-2.847c-1.998,-0.006 -4.001,1.492 -6.002,2.34c1.428,1.388 2.621,3.405 4.33,4.043c4.652,1.737 9.708,2.449 14.267,4.367c9.711,4.086 11.332,15.638 3.858,22.951c-6.808,6.661 -30.043,8.168 -36.465,-4.35c-0.094,-2.98 -0.077,-5.268 -0.061,-7.556c1.653,-0.011 3.306,-0.023 5.595,0.182c1.556,0.084 2.476,-0.047 3.396,-0.179c0.69,-0.014 1.38,-0.027 2.519,0.186c0.676,0.422 0.937,0.539 1.234,0.579l-0.002,-0Z" style="fill:#ec2128;fill-rule:nonzero;"/><path d="M158.34,67.928l-22.505,0l0,6.238l19.022,0l0,11.948l-19.069,0l0,18.372l-15.379,0l0,-48.807l37.931,0l0,12.249Z" style="fill:#fff;fill-rule:nonzero;"/><path d="M307.27,63.925l0,-7.851l43.083,0l0,12.053l-13.383,0l0,36.812l-15.45,0l0,-36.644c-3.87,0 -7.169,-0.194 -10.434,0.056c-3.137,0.24 -4.29,-0.961 -3.816,-4.426Z" style="fill:#fff;fill-rule:nonzero;"/><path d="M210.961,158.889l0,-46.608l36.402,0l0,11.525l-21.52,0l0,6.056l18.188,0l0,11.28l-18.438,0l0,17.747l-14.632,0Z" style="fill:#ec1f26;fill-rule:nonzero;"/><path d="M377.007,105.225l-13.557,0l0,-49.155l15.355,0l0,36.357l21.386,0l0,12.797l-23.184,0l0,0.001Z" style="fill:#fff;fill-rule:nonzero;"/><path d="M98.137,71.973c0.231,-2.674 0.022,-4.949 -2.779,-7.149c-1.129,-0.887 -0.844,-5.528 0.443,-7.149c3.054,-3.847 6.609,-1.394 9.151,1.179c1.623,1.642 3.488,3.884 0.399,6.61c-1.195,1.055 -0.961,4.218 -1.639,6.615l0.012,0.016c0.892,0.48 2.513,1.938 2.513,1.938c3.828,2.65 2.95,9.012 3.452,13.744c0.26,2.447 0.181,4.93 -0.172,7.934c-0.705,1.272 1.062,6.482 1.382,9.969c-0.076,0.156 -0.176,0.718 -0.295,1.609c-0.314,-1.179 -0.699,-1.958 -1.017,-2.561c-0.226,-0.428 -0.421,-0.751 -0.504,-1.079c-1.031,-4.046 -0.965,-4.038 -1.113,-4.367c-0.81,-1.796 -0.778,-2.214 -0.773,-2.409l-0.014,-0.193l-0.061,-0.176c-0.843,-1.676 -0.884,-2.047 -0.911,-2.22l-0.034,-0.149l-0.055,-0.127c-1.632,-3.019 -1.234,-5.648 -1.276,-8.49c0.022,-4.55 0.118,-6.904 0.02,-8.289c-0.111,-1.571 -0.451,-2.039 -1.312,-2.804c-0.217,-0.193 -0.565,-0.354 -0.98,-0.441c-0.549,-0.115 -1.222,-0.108 -1.801,0.063c-0.746,0.221 -1.33,0.706 -1.461,1.473c-0.808,4.737 -0.552,5.619 -0.427,6.091c0.764,2.901 1.526,8.372 1.992,10.797c0.131,0.685 0.256,1.151 0.34,1.307c0.322,0.596 2.486,4.606 3.762,7.588c1.208,2.821 1.382,7.755 2.072,10.362c0.206,0.777 0.47,1.366 0.783,1.699c0.305,0.324 0.66,0.459 1.067,0.401c0.372,-0.053 0.63,-0.038 0.827,-0.066c0.064,-0.009 0.124,-0.021 0.182,-0.038c-0.954,9.738 -2.316,26.082 -3.369,36.013c-0.386,3.641 -1.502,7.246 3.215,9.352l-13.538,0c0,-7.25 -0.135,-14.65 0.032,-22.042c0.246,-10.945 0.488,-21.898 1.173,-32.82c0.317,-5.06 1.676,-10.055 2.628,-15.757c-0.04,-0.173 -2.238,-5.833 -2.52,-7.891c-0.137,-1.002 -1.026,-5.552 -0.211,-6.505c-0.011,-0.18 0.147,-0.571 0.698,-0.954l0.117,-1.085l0.002,0.001Zm12.468,35.316c0.069,0.259 0.135,0.538 0.195,0.839c0.006,0.028 0.032,0.043 0.051,0.068c0.049,0.064 0.105,0.132 0.161,0.211c0.337,0.477 0.772,1.361 -0.276,4.305c-0.127,0.358 -0.261,0.568 -0.399,0.702c-0.127,0.124 -0.264,0.201 -0.425,0.247c0.084,-0.856 0.164,-1.661 0.242,-2.406c0.272,-0.985 0.285,-1.539 0.202,-1.889c0.09,-0.813 0.174,-1.512 0.25,-2.077l-0.001,0Zm-0.452,3.966c-0.09,0.324 -0.207,0.696 -0.359,1.122c-0.039,0.11 -0.075,0.196 -0.114,0.263c-0.015,0.026 -0.021,0.049 -0.039,0.058c-0.052,0.026 -0.116,0.019 -0.194,0.023c-0.181,0.009 -0.402,0.014 -0.686,0.054c-0.122,0.017 -0.199,-0.081 -0.283,-0.203c-0.185,-0.267 -0.329,-0.67 -0.46,-1.164c-0.7,-2.643 -0.895,-7.64 -2.12,-10.499c-1.29,-3.013 -3.476,-7.066 -3.801,-7.669c-0.104,-0.193 -0.238,-0.973 -0.425,-2.056c-0.472,-2.732 -1.146,-7.27 -1.82,-9.828c-0.116,-0.44 -0.307,-1.257 0.446,-5.668c0.085,-0.499 0.602,-0.689 1.116,-0.758c0.578,-0.078 1.207,0.001 1.477,0.241c0.651,0.579 0.895,0.939 0.979,2.127c0.097,1.373 -0.001,3.707 -0.023,8.218l0,0.01c0.045,2.99 -0.323,5.748 1.377,8.92c0.002,0.08 0.053,0.601 0.972,2.438c-0.004,0.174 0.034,0.97 0.863,2.808c0.142,0.316 0.064,0.312 1.055,4.202c0.078,0.305 0.223,0.61 0.412,0.966c0.375,0.71 0.931,1.667 1.294,3.464c0.038,0.187 0.132,0.344 0.264,0.513c0.099,0.127 0.21,0.273 0.271,0.528c-0.064,0.575 -0.131,1.207 -0.202,1.889l0,0.001Z" style="fill:#fff;"/><rect x="403.752" y="55.963" width="14.913" height="48.883" style="fill:#fff;fill-rule:nonzero;"/><path d="M482.715,143.187c-0.529,0.262 -1.449,0.393 -2.593,0.331c0.585,-0.283 1.393,-0.372 2.593,-0.331Z" style="fill:#e97e7c;fill-rule:nonzero;"/><path d="M338.755,112.099c0.175,0.238 0.048,0.537 -0.269,0.995c-0.128,-0.201 -0.076,-0.565 0.269,-0.995Z" style="fill:#f2aca8;fill-rule:nonzero;"/><path d="M167.76,112.121c0.174,0.224 0.058,0.538 -0.233,1.032c-0.135,-0.194 -0.096,-0.568 0.233,-1.032Z" style="fill:#f4b7b5;fill-rule:nonzero;"/><path d="M486.848,143.808c-0.285,0.234 -0.547,0.116 -0.879,-0.269c0.219,-0.128 0.543,-0.066 0.879,0.269Z" style="fill:#e97e7c;fill-rule:nonzero;"/><path d="M207.759,148.005c-0.363,0.133 -0.573,-0.117 -0.792,-0.676c0.21,-0.025 0.528,0.175 0.792,0.676Z" style="fill:#f4b7b5;fill-rule:nonzero;"/><path d="M167.248,157.963c0.258,0.007 0.421,0.296 0.622,0.836c-0.214,-0.017 -0.465,-0.286 -0.622,-0.836Z" style="fill:#f4b7b5;fill-rule:nonzero;"/><path d="M338.196,158.039c0.385,-0.083 0.561,0.19 0.658,0.782c-0.224,-0.004 -0.488,-0.254 -0.658,-0.782Z" style="fill:#f2aca8;fill-rule:nonzero;"/></svg>