<?xml version="1.0" encoding="UTF-8" standalone="no"?><!DOCTYPE svg PUBLIC "-//W3C//DTD SVG 1.1//EN" "http://www.w3.org/Graphics/SVG/1.1/DTD/svg11.dtd"><svg width="100%" height="100%" viewBox="0 0 1124 204" version="1.1" xmlns="http://www.w3.org/2000/svg" xmlns:xlink="http://www.w3.org/1999/xlink" xml:space="preserve" xmlns:serif="http://www.serif.com/" style="fill-rule:evenodd;clip-rule:evenodd;stroke-linejoin:round;stroke-miterlimit:2;"><path d="M20.922,132.014c-7.032,-23.331 -5.968,-45.977 4.975,-67.229c12.998,-25.243 33.456,-41.811 62.003,-46.73c24.795,-4.272 47.829,0.792 67.676,16.391c19.608,15.411 31.011,35.679 33.557,60.96c2.425,24.072 -3.815,45.547 -18.61,64.145c-13.567,17.054 -31.319,28.053 -53.309,31.503c-18.174,2.851 -35.665,0.508 -52.022,-7.606c-15.689,-7.782 -28.331,-19.328 -36.851,-34.855c-2.842,-5.178 -4.921,-10.775 -7.418,-16.58m45.296,-93.998c-22.41,11.66 -37.881,39.381 -37.756,60.983c2.772,0 5.557,0.074 8.337,-0.017c4.282,-0.141 9.532,1.003 12.513,-1.071c2.147,-1.493 1.154,-7.355 1.756,-11.238c2.636,-16.993 7.074,-33.375 17.002,-48.342c0.095,-0.353 0.189,-0.707 0.284,-1.06c-0.476,0.215 -0.951,0.43 -2.135,0.745m64.319,68.972c1.211,-0.956 2.421,-1.912 3.918,-3.094c-10.09,-10.066 -19.733,-19.705 -29.415,-29.304c-0.668,-0.662 -1.617,-1.452 -2.45,-1.469c-6.21,-0.124 -12.424,-0.067 -19.707,-0.067c1.943,2.098 3.002,3.319 4.14,4.46c7.754,7.775 15.395,15.672 23.357,23.23c3.127,2.969 2.793,4.811 -0.125,7.608c-7.807,7.48 -15.358,15.229 -22.984,22.897c-0.939,0.944 -1.717,2.048 -3.118,3.739c6.389,0 11.706,0.063 17.018,-0.057c0.98,-0.022 2.182,-0.545 2.878,-1.24c8.703,-8.695 17.331,-17.465 26.489,-26.704m10.439,-34.36c-2.701,-11.152 -7.361,-21.487 -14.114,-30.691c-4.348,-5.926 -9.644,-11.145 -17.852,-12.81c0,10.718 -0.103,21.015 0.111,31.305c0.032,1.542 1.259,3.341 2.429,4.534c8.968,9.134 18.108,18.099 27.073,27.237c1.816,1.851 3.116,4.209 4.654,6.333c0.633,-0.498 1.267,-0.996 1.9,-1.494c-1.382,-7.858 -2.764,-15.716 -4.202,-24.415m-6.477,47.371c-7.815,8.151 -15.648,16.284 -23.419,24.477c-0.863,0.91 -1.938,2.148 -1.954,3.248c-0.149,10.266 -0.088,20.536 -0.088,30.905c17.242,-3.665 33.731,-31.523 35.492,-69.078c-3.611,3.768 -6.571,6.858 -10.031,10.448m8.407,-74.32c8.693,16.56 11.858,34.568 13.422,53.021l21.115,0c1.393,-22.809 -18.078,-51.929 -39.741,-61.514c1.845,3.002 3.336,5.427 5.204,8.493m-89.053,90.012c-0.953,-6.479 -1.711,-12.997 -2.965,-19.418c-0.43,-2.204 -1.937,-5.833 -3.228,-5.958c-6.384,-0.619 -12.86,-0.282 -19.309,-0.282c0.888,24.754 19.871,52.289 36.893,58.745c-3.546,-10.141 -7.411,-21.196 -11.392,-33.087m97.62,26.328c15.35,-13.816 24.896,-30.536 26.569,-51.725l-21.858,0c-1.358,21.026 -5.839,40.983 -16.909,59.087c0.36,0.249 0.72,0.497 1.079,0.746c3.539,-2.533 7.078,-5.066 11.119,-8.108m-77.613,-100.022l24.139,0l0,-32.773c-12.579,0.977 -27.172,22.152 -28.489,32.539c1.155,0.078 2.302,0.155 4.35,0.234m24.139,100.502l0,-15.502l-28.214,0c3.993,15.392 18.279,31.294 28.214,31.434l0,-15.931m-28.399,-63.502l20.924,0c-8.681,-8.642 -17.191,-17.115 -25.887,-25.772c-1.02,8.143 -2.087,16.659 -3.229,25.772c3.289,0 5.255,0 8.192,0m-0.066,32.975c7.005,-6.944 14.009,-13.887 21.816,-21.626l-29.95,0c1.188,8.617 2.309,16.75 3.448,25.011c1.074,-0.307 1.46,-0.306 1.675,-0.498c0.867,-0.77 1.681,-1.599 3.011,-2.888Z" style="fill:#04a052;fill-rule:nonzero;"/><path d="M633.998,97.969c0.001,-3.988 -0.105,-7.485 0.038,-10.973c0.117,-2.844 -0.888,-6.258 2.976,-7.658c4.102,-1.487 9.973,-0.109 12.195,3.145c3.842,5.628 7.43,11.429 11.2,17.107c1.15,1.732 2.547,3.301 3.83,4.945c0.588,-0.108 1.175,-0.217 1.763,-0.325c0,-3.656 -0.002,-7.312 0.001,-10.968c0.001,-2.495 0.114,-4.995 -0.011,-7.484c-0.224,-4.44 1.272,-6.859 6.234,-6.789c4.829,0.068 5.823,2.663 5.794,6.734c-0.082,11.477 0.029,22.955 -0.058,34.431c-0.021,2.845 0.922,6.647 -3.114,7.459c-4.197,0.845 -8.69,1.361 -11.62,-3.237c-4.02,-6.31 -8.124,-12.566 -12.226,-18.824c-0.796,-1.215 -1.747,-2.329 -3.999,-3.345c0,3.174 0.004,6.348 -0.001,9.522c-0.006,3.493 -0.104,6.988 -0.009,10.478c0.118,4.322 -2.03,5.863 -6.158,5.82c-3.943,-0.04 -5.74,-1.635 -5.84,-5.652c-0.198,-7.968 -0.648,-15.929 -0.995,-24.388Z" style="fill:#06092c;fill-rule:nonzero;"/><path d="M484.044,128.002c-0.823,-0 -1.156,0.001 -1.489,-0.001c-9.451,-0.044 -9.542,-0.121 -9.55,-9.446c-0.009,-10.994 0.111,-21.989 -0.038,-32.98c-0.063,-4.634 1.709,-6.778 6.466,-6.597c4.99,0.19 9.997,-0.085 14.988,0.089c14.329,0.499 23.676,10.449 23.56,24.926c-0.112,14.07 -9.775,23.758 -23.954,23.988c-3.164,0.051 -6.329,0.016 -9.984,0.021m13.895,-13.23c5.749,-4.214 7.581,-9.841 5.404,-16.594c-1.561,-4.841 -5.771,-7.924 -10.819,-8.085c-3.428,-0.109 -5.426,1.227 -5.457,4.842c-0.036,4.153 -0.076,8.307 -0.063,12.46c0.027,8.554 1.696,9.802 10.935,7.377Z" style="fill:#06092c;fill-rule:nonzero;"/><path d="M261.701,124.824c-13.631,7.268 -29.751,2.766 -35.531,-9.629c-6.119,-13.124 -0.426,-29.342 12.228,-34.831c11.091,-4.811 25.334,-0.802 30.467,8.574c2.338,4.272 1.542,6.189 -3.161,5.878c-3.783,-0.251 -7.749,-1.245 -11.155,-2.896c-5.885,-2.852 -12.258,-1.844 -15.488,3.266c-3.928,6.214 -2.252,15.783 3.374,19.266c5.033,3.115 12.526,1.596 16.246,-3.926c-2.933,-0.222 -5.461,-0.457 -7.995,-0.593c-3.024,-0.163 -4.529,-1.662 -4.587,-4.727c-0.062,-3.249 1.353,-5.089 4.683,-5.115c5.494,-0.044 10.989,-0.039 16.482,0.004c3.031,0.024 4.434,1.657 4.686,4.666c0.729,8.677 -2.781,15.164 -10.25,20.063Z" style="fill:#06092c;fill-rule:nonzero;"/><path d="M420.252,127.945c-3.789,-0.102 -5.18,-1.991 -5.18,-5.162c-0.002,-12.829 0.006,-25.659 -0.011,-38.488c-0.005,-3.479 1.616,-5.266 5.157,-5.244c6.33,0.04 12.691,-0.32 18.983,0.181c6.477,0.516 12.234,3.164 14.085,10.063c1.777,6.622 1.122,13.058 -5.105,17.467c-2.473,1.751 -2.624,3.591 -1.287,5.958c2.047,3.624 4.071,7.263 6.152,10.867c1.531,2.651 0.815,3.926 -2.22,4.358c-8.704,1.24 -10.988,0.125 -15.152,-7.513c-1.579,-2.896 -3.346,-5.689 -6.271,-8.462c-0.135,2.614 -0.351,5.228 -0.388,7.843c-0.109,7.706 -0.464,8.082 -8.762,8.131m18.769,-29.213c-0.149,-2.392 0.596,-5.786 -0.675,-6.92c-1.54,-1.374 -5.242,-1.76 -7.139,-0.82c-1.391,0.69 -2.05,4.266 -1.849,6.447c0.354,3.845 3.802,4.407 9.663,1.293Z" style="fill:#06092c;fill-rule:nonzero;"/><path d="M848.064,122.979c-7.739,-7.59 -10.636,-16.38 -7.751,-26.566c2.659,-9.388 8.888,-15.362 18.527,-17.566c10.59,-2.422 21.559,2.267 26.992,11.539c5.209,8.892 3.976,22.398 -2.733,29.932c-7.272,8.166 -19.274,10.713 -29.131,6.094c-1.945,-0.912 -3.74,-2.146 -5.904,-3.433m6.779,-28.528c-0.888,2.642 -2.26,5.229 -2.569,7.937c-0.763,6.695 4.761,13.169 11.061,13.496c5.667,0.295 10.161,-2.664 11.935,-7.859c1.928,-5.647 0.073,-12.974 -4.033,-15.923c-4.491,-3.226 -10.918,-2.528 -16.394,2.348Z" style="fill:#06092c;fill-rule:nonzero;"/><path d="M818.125,127.883c-7.231,1.109 -12.327,-0.683 -14.907,-7.845c-1.131,-3.141 -3.363,-5.886 -5.095,-8.811c-0.562,0.081 -1.125,0.163 -1.687,0.244c-0.148,3.117 -0.354,6.232 -0.433,9.351c-0.163,6.455 -3.578,9.03 -9.718,6.755c-1.411,-0.523 -3.033,-2.84 -3.061,-4.359c-0.242,-13.13 -0.154,-26.267 -0.133,-39.402c0.005,-3.336 1.911,-4.757 5.091,-4.756c5.653,0.002 11.322,-0.263 16.954,0.074c6.642,0.397 12.416,2.691 15.017,9.571c2.497,6.605 0.452,12.977 -5.12,18.411c-1.113,1.085 -1.639,3.929 -1.039,5.387c1.569,3.813 3.892,7.319 5.952,10.926c1.164,2.038 1.644,3.788 -1.821,4.456m-10.121,-31.074c-0.945,-2.052 -1.401,-5.185 -2.957,-5.889c-2.067,-0.935 -5.447,-0.733 -7.384,0.437c-1.274,0.769 -1.445,4.151 -1.236,6.276c0.113,1.148 2.283,3.155 3.146,2.973c2.825,-0.594 5.475,-2.014 8.43,-3.797Z" style="fill:#06092c;fill-rule:nonzero;"/><path d="M605.635,96.37c3.255,8.783 6.446,17.171 9.478,25.617c1.772,4.937 1.052,5.807 -4.23,6.006c-4.458,0.168 -8.774,0.317 -10.455,-5.264c-0.303,-1.006 -1.864,-2.162 -2.964,-2.299c-3.116,-0.39 -6.299,-0.21 -9.446,-0.399c-4.046,-0.243 -5.167,2.744 -6.748,5.548c-1.392,2.469 -10.657,3.566 -12.368,1.504c-0.673,-0.811 -0.847,-2.573 -0.475,-3.63c4.798,-13.646 9.647,-27.277 14.761,-40.806c0.565,-1.495 2.708,-3.039 4.359,-3.371c9.168,-1.847 11.558,-0.394 14.864,8.297c1.064,2.797 2.064,5.618 3.224,8.797m-12.698,3.14c-0.788,-0.138 -2.19,-0.549 -2.269,-0.372c-0.803,1.811 -1.581,3.679 -1.966,5.611c-0.228,1.141 -0.036,3.3 0.483,3.476c1.438,0.486 3.275,0.526 4.688,0.011c0.617,-0.225 0.913,-2.279 0.763,-3.425c-0.212,-1.613 -0.974,-3.154 -1.699,-5.301Z" style="fill:#06092c;fill-rule:nonzero;"/><path d="M1042.087,80.699c3.734,3.474 7.487,6.495 10.38,10.19c1.878,2.4 0.797,4.888 -2.796,5.002c-4.608,0.147 -8.968,0.478 -13.004,-3.248c-5.076,-4.686 -12.394,-3.096 -14.786,3.341c-1.443,3.882 -1.7,8.945 -0.529,12.897c2.157,7.284 10.391,9.412 16.082,4.34c3.765,-3.356 7.748,-3.299 12.052,-3.125c3.641,0.147 4.579,1.941 3.263,5.327c-3.187,8.203 -13.464,14.169 -23.166,13.306c-14.708,-1.308 -23.551,-10.754 -23.567,-25.171c-0.015,-14.304 8.931,-24.163 23.556,-25.13c3.993,-0.264 8.109,1.351 12.514,2.27Z" style="fill:#06092c;fill-rule:nonzero;"/><path d="M380.96,120.566c-4.024,-0.271 -7.74,-0.852 -11.291,-0.325c-2.062,0.306 -4.393,2.005 -5.664,3.759c-2.454,3.384 -8.244,5.705 -11.545,3.327c-1.138,-0.82 -1.638,-3.882 -1.095,-5.461c3.674,-10.681 7.705,-21.239 11.623,-31.836c0.403,-1.091 0.835,-2.172 1.226,-3.266c2.792,-7.807 3.439,-8.116 11.996,-7.775c3.496,0.139 5.449,1.613 6.621,4.858c4.403,12.188 9.078,24.279 13.316,36.523c0.716,2.068 0.676,5.609 -0.6,6.893c-2.324,2.337 -9.472,0.488 -11.172,-2.097c-0.986,-1.498 -2.022,-2.963 -3.414,-4.599m-5.59,-21.773c-0.517,-0.676 -1.035,-1.353 -2.021,-2.642c-1.136,3.156 -2.26,5.536 -2.785,8.042c-0.279,1.332 0.069,3.772 0.861,4.138c1.451,0.671 3.649,0.633 5.117,-0.033c0.7,-0.318 0.713,-2.786 0.54,-4.22c-0.192,-1.597 -0.949,-3.126 -1.713,-5.285Z" style="fill:#06092c;fill-rule:nonzero;"/><path d="M323.194,125.33c-16.564,8.99 -33.607,-0.79 -32.236,-19.373c0.305,-4.14 0.041,-8.323 0.044,-12.486c0.002,-2.664 0.107,-5.333 -0.005,-7.992c-0.179,-4.255 1.344,-6.508 6.019,-6.506c4.697,0.001 6.094,2.304 5.999,6.536c-0.123,5.492 -0.116,10.993 0.043,16.483c0.077,2.639 0.471,5.298 1.006,7.889c0.872,4.225 3.619,6.366 7.927,5.817c4.109,-0.523 6.771,-2.925 6.869,-7.249c0.173,-7.656 0.253,-15.32 0.108,-22.976c-0.089,-4.704 1.863,-6.53 6.554,-6.532c4.731,-0.002 6.61,1.918 6.503,6.581c-0.176,7.656 0.057,15.321 -0.104,22.978c-0.143,6.82 -2.386,12.722 -8.727,16.829Z" style="fill:#06092c;fill-rule:nonzero;"/><path d="M988.534,125.344c-1.875,1.132 -3.588,2.459 -5.348,2.524c-6.813,0.251 -13.642,0.045 -20.464,0.12c-4.005,0.044 -5.717,-1.839 -5.698,-5.783c0.06,-12.481 0.062,-24.962 -0,-37.442c-0.02,-3.959 1.712,-5.804 5.713,-5.753c6.988,0.089 13.978,0.042 20.967,0.039c3.441,-0.002 5.27,1.516 5.199,5.137c-0.067,3.407 -1.919,4.728 -5.074,4.761c-2.496,0.026 -4.991,0.074 -7.487,0.104c-3.052,0.037 -5.236,1.045 -5.17,4.589c0.061,3.261 2.112,4.236 4.95,4.299c1.996,0.045 3.993,0.085 5.989,0.127c3.279,0.07 4.815,1.726 4.792,5.023c-0.023,3.37 -1.771,4.8 -4.971,4.857c-2.328,0.042 -4.856,-0.397 -6.919,0.379c-1.586,0.597 -3.58,2.76 -3.567,4.211c0.013,1.451 2.04,3.514 3.645,4.157c1.88,0.754 4.258,0.276 6.42,0.311c6.955,0.112 7.671,0.904 7.024,8.339Z" style="fill:#06092c;fill-rule:nonzero;"/><path d="M727.01,86.196c-0.428,-5.415 1.858,-7.455 6.769,-7.227c4.819,0.223 9.663,-0.09 14.481,0.135c9.85,0.46 16.005,6.325 16.376,15.332c0.343,8.346 -5.247,14.571 -14.564,16.21c-0.491,0.086 -0.988,0.145 -1.484,0.201c-8.46,0.951 -8.46,0.951 -8.595,9.537c-0.105,6.7 -1.239,7.736 -7.369,7.625c-4.067,-0.073 -5.635,-1.986 -5.617,-5.877c0.055,-11.822 0.007,-23.644 0.003,-35.936m13.273,5.923c0.105,3.359 -1.932,8.124 3.679,8.417c2.362,0.123 5.348,-1.99 7.073,-3.948c0.726,-0.824 -0.465,-4.697 -1.862,-5.736c-2.581,-1.919 -5.99,-3.215 -8.89,1.267Z" style="fill:#06092c;fill-rule:nonzero;"/><path d="M1095.655,126.665c-2.391,0.629 -4.477,1.104 -6.587,1.279c-4.161,0.345 -6.116,-1.598 -6.069,-5.861c0.094,-8.483 0.037,-16.968 -0.013,-25.452c-0.039,-6.676 -0.317,-7.082 -6.83,-7.623c-3.479,-0.289 -5.167,-1.755 -5.064,-5.31c0.1,-3.448 2.078,-4.643 5.182,-4.644c9.149,-0.004 18.298,-0.004 27.447,0c3.104,0.002 5.083,1.198 5.184,4.644c0.104,3.555 -1.585,5.02 -5.064,5.309c-6.511,0.541 -6.79,0.948 -6.829,7.625c-0.046,7.818 0.055,15.638 -0.068,23.455c-0.033,2.1 -0.647,4.191 -1.289,6.576Z" style="fill:#06092c;fill-rule:nonzero;"/><path d="M909.911,110.027c2.38,0.961 4.356,1.874 6.276,2.89c1.486,0.786 3.633,2.755 4.212,2.355c1.533,-1.06 3.171,-3.047 3.33,-4.796c0.374,-4.102 -0.089,-8.28 -0.219,-12.427c-0.145,-4.646 -0.34,-9.292 -0.434,-13.939c-0.088,-4.347 2.723,-5.129 6.304,-5.105c3.443,0.023 6.529,0.407 6.535,4.86c0.014,10.808 0.297,21.632 -0.179,32.42c-0.338,7.675 -7.968,13.022 -16.542,12.495c-8.925,-0.549 -15.693,-6.653 -15.886,-14.295c-0.115,-4.528 3.108,-4.371 6.603,-4.459Z" style="fill:#06092c;fill-rule:nonzero;"/><path d="M549.997,98.001c-0.009,8.331 -0.14,16.164 0.016,23.992c0.102,5.091 -2.717,6.055 -7.012,6.054c-4.29,-0.001 -7.077,-0.954 -7.019,-6.049c0.14,-12.328 0.14,-24.66 0,-36.988c-0.058,-5.089 2.719,-6.056 7.014,-6.056c4.291,0.001 7.197,0.957 7.007,6.051c-0.156,4.159 -0.015,8.33 -0.006,12.995Z" style="fill:#06092c;fill-rule:nonzero;"/><path d="M67.115,38.11c0.288,-0.408 0.763,-0.623 1.239,-0.838c-0.095,0.353 -0.189,0.707 -0.479,1.238c-0.321,0.05 -0.446,-0.079 -0.759,-0.4Z" style="fill-rule:nonzero;"/></svg>